# xmcd
#
# Track frame offsets:
#	150
#	17683
#	30571
#	44505
#	56756
#	69769
#	82445
#	96242
#	109108
#	120378
#	133382
#	146730
#
# Disc length: 2125 seconds
#
# Revision: 0
# Processed by: cddbd v1.5.2PL0 Copyright (c) Steve Scherf et al.
# Submitted via: dBpowerAMP V4.0
#
DISCID=ad084b0c
DTITLE=Merle Haggard - Vintage Vaults CD 2 Classic Drinking Songs
DYEAR=2007
DGENRE=Country
TTITLE0=I Think I'll Just Stay Here And Drink
TTITLE1=Let's Chase Each Other Around The Room
TTITLE2=I Threw Away The Rose
TTITLE3=Tonight The Bottle Let Me Down
TTITLE4=Misery And Gin
TTITLE5=It's Been A Great Afternoon
TTITLE6=I Had A Beautiful Time
TTITLE7=Swinging Doors
TTITLE8=(My Friends Are Gonna Be) Strangers
TTITLE9=Kentucky Gambler
TTITLE10=Holding Things Together
TTITLE11=I'm Always On A Mountain When I Fall
EXTD=
EXTT0=
EXTT1=
EXTT2=
EXTT3=
EXTT4=
EXTT5=
EXTT6=
EXTT7=
EXTT8=
EXTT9=
EXTT10=
EXTT11=
PLAYORDER=
